<?xml version="1.0" encoding="UTF-8"?>
<svg width="174px" height="78px" viewBox="0 0 174 78" version="1.1" xmlns="http://www.w3.org/2000/svg" xmlns:xlink="http://www.w3.org/1999/xlink">
    <title>Logo</title>
    <defs>
        <linearGradient x1="9.14242265%" y1="10.3268759%" x2="76.5995849%" y2="62.3326405%" id="linearGradient-1">
            <stop stop-color="#FFD614" offset="0%"></stop>
            <stop stop-color="#FBBA0D" offset="100%"></stop>
        </linearGradient>
        <linearGradient x1="-63.147877%" y1="57.2293453%" x2="101.24451%" y2="45.4743752%" id="linearGradient-2">
            <stop stop-color="#283371" offset="0%"></stop>
            <stop stop-color="#E72C5E" offset="71%"></stop>
            <stop stop-color="#E72D5E" offset="100%"></stop>
        </linearGradient>
        <linearGradient x1="20.5857602%" y1="62.9574727%" x2="238.799492%" y2="-0.461374232%" id="linearGradient-3">
            <stop stop-color="#283371" offset="0%"></stop>
            <stop stop-color="#E72C5E" offset="71%"></stop>
            <stop stop-color="#E72D5E" offset="100%"></stop>
        </linearGradient>
    </defs>
    <g id="Page-1" stroke="none" stroke-width="1" fill="none" fill-rule="evenodd">
        <g id="Homepage" transform="translate(-160.000000, -29.000000)" fill-rule="nonzero">
            <g id="Header" transform="translate(0.000000, -0.435115)">
                <g id="Logo" transform="translate(160.000000, 29.435115)">
                    <path d="M118.351407,25.4254055 C118.351407,25.4254055 112.771218,51.6391717 105.00186,51.6391717 C98.3259326,51.6391717 88.7849395,28.3270348 61.9474364,5.19466519 C55.0362141,-0.765313664 48.9416049,-0.968128103 51.1515351,1.44720749 C77.0386299,29.7467358 86.7503274,52.9021525 94.914151,70.3764602 C99.7515452,80.7338248 106.206018,80.0124508 113.405592,70.7774797 C129.308785,50.3761909 137.530279,27.3567521 137.530279,27.3567521 C137.530279,27.3567521 131.431056,28.7119213 118.351407,25.4277102 L118.351407,25.4254055 Z" id="Path" fill="url(#linearGradient-1)"></path>
                    <path d="M117.673203,10.2926827 C107.011097,6.50143549 88.7364964,4.69684793 78.7087651,15.4390991 C83.1816823,20.3135597 88.2405308,27.2184695 88.2405308,27.2184695 C96.1021615,19.7258588 110.612037,18.5458475 121.467916,21.3045848 C157.338912,30.4220157 173.242105,7.22280958 173.242105,7.22280958 C173.242105,7.22280958 154.127824,23.2543691 117.673203,10.2926827 Z" id="Path" fill="url(#linearGradient-2)"></path>
                    <path d="M66.6925579,26.7667464 C62.2196407,34.847058 57.2138489,55.5479591 57.1146558,55.7899536 C55.3983843,43.1509265 51.8043642,15.2777694 42.2956666,12.638877 C27.6589159,8.57797878 1.06824208,65.8707531 0.0555496407,71.9436627 C-0.172825193,73.3172696 0.29315174,75.5297907 1.63571894,76.3986662 C5.08902325,78.6319297 20.403978,79.3095143 21.2113638,73.1766823 C23.4028394,56.5389842 34.9761378,33.2222378 38.9069531,34.9830359 C44.9162101,37.7371638 45.68438,56.3776545 49.179207,68.9798062 C49.7305362,70.9641611 50.8747172,77.9843064 58.6002456,77.9843064 C68.9094086,77.9843064 67.7629208,59.5881149 76.2681532,41.9778293 C76.2681532,41.9778293 72.1574062,34.664986 66.6902511,26.7667464 L66.6925579,26.7667464 Z" id="Path" fill="url(#linearGradient-3)"></path>
                </g>
            </g>
        </g>
    </g>
</svg>